<?xml version="1.0" standalone="no"?>
<svg xmlns:xlink="http://www.w3.org/1999/xlink" id="wave" style="transform:rotate(180deg); transition: 0.3s" viewBox="0 0 1440 200" version="1.1" xmlns="http://www.w3.org/2000/svg"><defs><linearGradient id="sw-gradient-0" x1="0" x2="0" y1="1" y2="0"><stop stop-color="rgba(255, 255, 255, 1)" offset="0%"/><stop stop-color="rgba(255, 255, 255, 1)" offset="100%"/></linearGradient></defs><path style="transform:translate(0, 0px); opacity:1" fill="url(#sw-gradient-0)" d="M0,160L12,133.3C24,107,48,53,72,56.7C96,60,120,120,144,140C168,160,192,140,216,140C240,140,264,160,288,146.7C312,133,336,87,360,80C384,73,408,107,432,116.7C456,127,480,113,504,90C528,67,552,33,576,36.7C600,40,624,80,648,103.3C672,127,696,133,720,133.3C744,133,768,127,792,110C816,93,840,67,864,73.3C888,80,912,120,936,116.7C960,113,984,67,1008,40C1032,13,1056,7,1080,30C1104,53,1128,107,1152,110C1176,113,1200,67,1224,66.7C1248,67,1272,113,1296,123.3C1320,133,1344,107,1368,80C1392,53,1416,27,1440,33.3C1464,40,1488,80,1512,110C1536,140,1560,160,1584,150C1608,140,1632,100,1656,86.7C1680,73,1704,87,1716,93.3L1728,100L1728,200L1716,200C1704,200,1680,200,1656,200C1632,200,1608,200,1584,200C1560,200,1536,200,1512,200C1488,200,1464,200,1440,200C1416,200,1392,200,1368,200C1344,200,1320,200,1296,200C1272,200,1248,200,1224,200C1200,200,1176,200,1152,200C1128,200,1104,200,1080,200C1056,200,1032,200,1008,200C984,200,960,200,936,200C912,200,888,200,864,200C840,200,816,200,792,200C768,200,744,200,720,200C696,200,672,200,648,200C624,200,600,200,576,200C552,200,528,200,504,200C480,200,456,200,432,200C408,200,384,200,360,200C336,200,312,200,288,200C264,200,240,200,216,200C192,200,168,200,144,200C120,200,96,200,72,200C48,200,24,200,12,200L0,200Z"/></svg>