<?xml version="1.0" standalone="no"?>
<svg xmlns:xlink="http://www.w3.org/1999/xlink" id="wave" style="transform:rotate(0deg); transition: 0.3s" viewBox="0 0 1440 300" version="1.1" xmlns="http://www.w3.org/2000/svg"><defs><linearGradient id="sw-gradient-0" x1="0" x2="0" y1="1" y2="0"><stop stop-color="rgba(255, 255, 255, 1)" offset="0%"/><stop stop-color="rgba(255, 255, 255, 1)" offset="100%"/></linearGradient></defs><path style="transform:translate(0, 0px); opacity:1" fill="url(#sw-gradient-0)" d="M0,240L13.3,200C26.7,160,53,80,80,85C106.7,90,133,180,160,210C186.7,240,213,210,240,210C266.7,210,293,240,320,220C346.7,200,373,130,400,120C426.7,110,453,160,480,175C506.7,190,533,170,560,135C586.7,100,613,50,640,55C666.7,60,693,120,720,155C746.7,190,773,200,800,200C826.7,200,853,190,880,165C906.7,140,933,100,960,110C986.7,120,1013,180,1040,175C1066.7,170,1093,100,1120,60C1146.7,20,1173,10,1200,45C1226.7,80,1253,160,1280,165C1306.7,170,1333,100,1360,100C1386.7,100,1413,170,1440,185C1466.7,200,1493,160,1520,120C1546.7,80,1573,40,1600,50C1626.7,60,1653,120,1680,165C1706.7,210,1733,240,1760,225C1786.7,210,1813,150,1840,130C1866.7,110,1893,130,1907,140L1920,150L1920,300L1906.7,300C1893.3,300,1867,300,1840,300C1813.3,300,1787,300,1760,300C1733.3,300,1707,300,1680,300C1653.3,300,1627,300,1600,300C1573.3,300,1547,300,1520,300C1493.3,300,1467,300,1440,300C1413.3,300,1387,300,1360,300C1333.3,300,1307,300,1280,300C1253.3,300,1227,300,1200,300C1173.3,300,1147,300,1120,300C1093.3,300,1067,300,1040,300C1013.3,300,987,300,960,300C933.3,300,907,300,880,300C853.3,300,827,300,800,300C773.3,300,747,300,720,300C693.3,300,667,300,640,300C613.3,300,587,300,560,300C533.3,300,507,300,480,300C453.3,300,427,300,400,300C373.3,300,347,300,320,300C293.3,300,267,300,240,300C213.3,300,187,300,160,300C133.3,300,107,300,80,300C53.3,300,27,300,13,300L0,300Z"/></svg>