<svg width="215" height="43" viewBox="0 0 215 43" fill="none" xmlns="http://www.w3.org/2000/svg">
<path d="M5.17188 42L5 0H0.0859375V42H5.17188Z" fill="url(#paint0_linear_1_109)"/>
<path d="M19.553 42V23.0508C19.553 21.2188 19.9016 19.6602 20.5989 18.375C21.2961 17.0898 22.2463 16.1123 23.4495 15.4424C24.6663 14.7725 26.0471 14.4375 27.592 14.4375C29.8342 14.4375 31.5979 15.1348 32.8831 16.5293C34.1682 17.9102 34.8108 19.8379 34.8108 22.3125V42H39.6506V21.9844C39.6506 19.3047 39.2063 17.0898 38.3176 15.3398C37.429 13.5762 36.1848 12.2637 34.5852 11.4023C32.9856 10.5273 31.1194 10.0898 28.9866 10.0898C26.6077 10.0898 24.6663 10.582 23.1624 11.5664C21.6584 12.5371 20.5374 13.8223 19.7991 15.4219H19.3889V10.5H14.7131V42H19.553Z" fill="url(#paint1_linear_1_109)"/>
<path d="M62.1938 14.6016V10.5H55.4673V2.95312H50.6274V10.5H45.8696V14.6016H50.6274V34.2891C50.6274 36.1211 51.0513 37.6387 51.8989 38.8418C52.7603 40.0449 53.8403 40.9404 55.1392 41.5283C56.4517 42.1162 57.7915 42.4102 59.1587 42.4102C60.061 42.4102 60.8062 42.3418 61.394 42.2051C61.9819 42.082 62.4399 41.959 62.7681 41.8359L61.7837 37.4883L60.9634 37.6523C60.6216 37.707 60.1841 37.7344 59.6509 37.7344C58.9399 37.7344 58.2632 37.625 57.6206 37.4062C56.9917 37.1738 56.4722 36.7227 56.062 36.0527C55.6655 35.3691 55.4673 34.3438 55.4673 32.9766V14.6016H62.1938Z" fill="url(#paint2_linear_1_109)"/>
<path fill-rule="evenodd" clip-rule="evenodd" d="M85.0515 34.7052H99.3735L101.626 40.8268H112.367L97.179 1.1525H87.3037L72.1155 40.8268H82.7992L85.0515 34.7052ZM92.2125 14.0307L99.3735 34.7052H85.0515L92.2125 14.0307Z" fill="url(#paint3_linear_1_109)"/>
<path d="M113.659 26.447C113.659 36.0913 120.82 41.5197 130.002 41.5197C135.488 41.5197 140.512 39.7295 144.035 35.3983L137.913 30.9515C135.777 33.3192 133.698 34.2432 130.464 34.2432C126.017 33.9545 122.899 30.9515 122.899 26.447C122.899 21.9425 126.133 19.1127 130.464 18.6507C132.023 18.593 133.582 18.9395 134.968 19.517C136.066 20.21 136.99 21.0185 137.913 22.0002L144.035 17.669C140.743 13.1645 135.488 11.2587 130.002 11.2587C120.704 11.2587 113.659 16.8605 113.659 26.447Z" fill="url(#paint4_linear_1_109)"/>
<path fill-rule="evenodd" clip-rule="evenodd" d="M146.821 26.447C146.821 34.1278 151.499 41.5197 159.815 41.5197C161.894 41.5197 163.857 41 165.647 40.076C166.918 39.2675 168.073 38.2858 168.997 37.073V40.8268H178.237V12.0672H168.997V15.9365C166.976 13.1067 163.222 11.2587 159.815 11.2587C151.556 11.2587 146.821 18.8817 146.821 26.447ZM155.657 26.447C155.657 22.5777 158.14 18.9972 162.298 18.9972C166.456 18.9972 168.997 22.5777 168.997 26.447C168.997 30.4895 166.514 33.839 162.298 33.839C158.082 33.839 155.657 30.4895 155.657 26.447Z" fill="url(#paint5_linear_1_109)"/>
<path fill-rule="evenodd" clip-rule="evenodd" d="M182.858 26.447C182.858 34.0122 187.536 41.5197 195.794 41.5197C197.816 41.5197 199.779 41 201.627 40.076C202.898 39.2675 204.11 38.2858 204.977 37.073V40.8268H214.217V1.1525H204.977V15.9365C203.013 13.049 199.202 11.2587 195.794 11.2587C187.594 11.2587 182.858 18.9395 182.858 26.447ZM191.636 26.447C191.636 22.4622 194.062 18.9972 198.335 18.9972C200.126 18.9972 201.8 19.748 202.955 21.0762C204.284 22.4045 204.977 24.4835 204.977 26.447C204.977 28.526 204.284 30.4895 202.955 31.8177C201.8 33.2038 200.126 33.839 198.335 33.839C194.062 33.839 191.636 30.5472 191.636 26.447Z" fill="url(#paint6_linear_1_109)"/>
<path d="M5.17188 42L5 0H0.0859375V42H5.17188Z" fill="url(#paint7_linear_1_109)"/>
<path d="M19.553 42V23.0508C19.553 21.2188 19.9016 19.6602 20.5989 18.375C21.2961 17.0898 22.2463 16.1123 23.4495 15.4424C24.6663 14.7725 26.0471 14.4375 27.592 14.4375C29.8342 14.4375 31.5979 15.1348 32.8831 16.5293C34.1682 17.9102 34.8108 19.8379 34.8108 22.3125V42H39.6506V21.9844C39.6506 19.3047 39.2063 17.0898 38.3176 15.3398C37.429 13.5762 36.1848 12.2637 34.5852 11.4023C32.9856 10.5273 31.1194 10.0898 28.9866 10.0898C26.6077 10.0898 24.6663 10.582 23.1624 11.5664C21.6584 12.5371 20.5374 13.8223 19.7991 15.4219H19.3889V10.5H14.7131V42H19.553Z" fill="url(#paint8_linear_1_109)"/>
<path d="M62.1938 14.6016V10.5H55.4673V2.95312H50.6274V10.5H45.8696V14.6016H50.6274V34.2891C50.6274 36.1211 51.0513 37.6387 51.8989 38.8418C52.7603 40.0449 53.8403 40.9404 55.1392 41.5283C56.4517 42.1162 57.7915 42.4102 59.1587 42.4102C60.061 42.4102 60.8062 42.3418 61.394 42.2051C61.9819 42.082 62.4399 41.959 62.7681 41.8359L61.7837 37.4883L60.9634 37.6523C60.6216 37.707 60.1841 37.7344 59.6509 37.7344C58.9399 37.7344 58.2632 37.625 57.6206 37.4062C56.9917 37.1738 56.4722 36.7227 56.062 36.0527C55.6655 35.3691 55.4673 34.3438 55.4673 32.9766V14.6016H62.1938Z" fill="url(#paint9_linear_1_109)"/>
<path fill-rule="evenodd" clip-rule="evenodd" d="M85.0515 34.7052H99.3735L101.626 40.8268H112.367L97.179 1.1525H87.3037L72.1155 40.8268H82.7992L85.0515 34.7052ZM92.2125 14.0307L99.3735 34.7052H85.0515L92.2125 14.0307Z" fill="url(#paint10_linear_1_109)"/>
<path d="M113.659 26.447C113.659 36.0913 120.82 41.5197 130.002 41.5197C135.488 41.5197 140.512 39.7295 144.035 35.3983L137.913 30.9515C135.777 33.3192 133.698 34.2432 130.464 34.2432C126.017 33.9545 122.899 30.9515 122.899 26.447C122.899 21.9425 126.133 19.1127 130.464 18.6507C132.023 18.593 133.582 18.9395 134.968 19.517C136.066 20.21 136.99 21.0185 137.913 22.0002L144.035 17.669C140.743 13.1645 135.488 11.2587 130.002 11.2587C120.704 11.2587 113.659 16.8605 113.659 26.447Z" fill="url(#paint11_linear_1_109)"/>
<path fill-rule="evenodd" clip-rule="evenodd" d="M146.821 26.447C146.821 34.1278 151.499 41.5197 159.815 41.5197C161.894 41.5197 163.857 41 165.647 40.076C166.918 39.2675 168.073 38.2858 168.997 37.073V40.8268H178.237V12.0672H168.997V15.9365C166.976 13.1067 163.222 11.2587 159.815 11.2587C151.556 11.2587 146.821 18.8817 146.821 26.447ZM155.657 26.447C155.657 22.5777 158.14 18.9972 162.298 18.9972C166.456 18.9972 168.997 22.5777 168.997 26.447C168.997 30.4895 166.514 33.839 162.298 33.839C158.082 33.839 155.657 30.4895 155.657 26.447Z" fill="url(#paint12_linear_1_109)"/>
<path fill-rule="evenodd" clip-rule="evenodd" d="M182.858 26.447C182.858 34.0122 187.536 41.5197 195.794 41.5197C197.816 41.5197 199.779 41 201.627 40.076C202.898 39.2675 204.11 38.2858 204.977 37.073V40.8268H214.217V1.1525H204.977V15.9365C203.013 13.049 199.202 11.2587 195.794 11.2587C187.594 11.2587 182.858 18.9395 182.858 26.447ZM191.636 26.447C191.636 22.4622 194.062 18.9972 198.335 18.9972C200.126 18.9972 201.8 19.748 202.955 21.0762C204.284 22.4045 204.977 24.4835 204.977 26.447C204.977 28.526 204.284 30.4895 202.955 31.8177C201.8 33.2038 200.126 33.839 198.335 33.839C194.062 33.839 191.636 30.5472 191.636 26.447Z" fill="url(#paint13_linear_1_109)"/>
<path d="M5.17188 42L5 0H0.0859375V42H5.17188Z" fill="url(#paint14_linear_1_109)"/>
<path d="M19.553 42V23.0508C19.553 21.2188 19.9016 19.6602 20.5989 18.375C21.2961 17.0898 22.2463 16.1123 23.4495 15.4424C24.6663 14.7725 26.0471 14.4375 27.592 14.4375C29.8342 14.4375 31.5979 15.1348 32.8831 16.5293C34.1682 17.9102 34.8108 19.8379 34.8108 22.3125V42H39.6506V21.9844C39.6506 19.3047 39.2063 17.0898 38.3176 15.3398C37.429 13.5762 36.1848 12.2637 34.5852 11.4023C32.9856 10.5273 31.1194 10.0898 28.9866 10.0898C26.6077 10.0898 24.6663 10.582 23.1624 11.5664C21.6584 12.5371 20.5374 13.8223 19.7991 15.4219H19.3889V10.5H14.7131V42H19.553Z" fill="url(#paint15_linear_1_109)"/>
<path d="M62.1938 14.6016V10.5H55.4673V2.95312H50.6274V10.5H45.8696V14.6016H50.6274V34.2891C50.6274 36.1211 51.0513 37.6387 51.8989 38.8418C52.7603 40.0449 53.8403 40.9404 55.1392 41.5283C56.4517 42.1162 57.7915 42.4102 59.1587 42.4102C60.061 42.4102 60.8062 42.3418 61.394 42.2051C61.9819 42.082 62.4399 41.959 62.7681 41.8359L61.7837 37.4883L60.9634 37.6523C60.6216 37.707 60.1841 37.7344 59.6509 37.7344C58.9399 37.7344 58.2632 37.625 57.6206 37.4062C56.9917 37.1738 56.4722 36.7227 56.062 36.0527C55.6655 35.3691 55.4673 34.3438 55.4673 32.9766V14.6016H62.1938Z" fill="url(#paint16_linear_1_109)"/>
<path fill-rule="evenodd" clip-rule="evenodd" d="M85.0515 34.7052H99.3735L101.626 40.8268H112.367L97.179 1.1525H87.3037L72.1155 40.8268H82.7992L85.0515 34.7052ZM92.2125 14.0307L99.3735 34.7052H85.0515L92.2125 14.0307Z" fill="url(#paint17_linear_1_109)"/>
<path d="M113.659 26.447C113.659 36.0913 120.82 41.5197 130.002 41.5197C135.488 41.5197 140.512 39.7295 144.035 35.3983L137.913 30.9515C135.777 33.3192 133.698 34.2432 130.464 34.2432C126.017 33.9545 122.899 30.9515 122.899 26.447C122.899 21.9425 126.133 19.1127 130.464 18.6507C132.023 18.593 133.582 18.9395 134.968 19.517C136.066 20.21 136.99 21.0185 137.913 22.0002L144.035 17.669C140.743 13.1645 135.488 11.2587 130.002 11.2587C120.704 11.2587 113.659 16.8605 113.659 26.447Z" fill="url(#paint18_linear_1_109)"/>
<path fill-rule="evenodd" clip-rule="evenodd" d="M146.821 26.447C146.821 34.1278 151.499 41.5197 159.815 41.5197C161.894 41.5197 163.857 41 165.647 40.076C166.918 39.2675 168.073 38.2858 168.997 37.073V40.8268H178.237V12.0672H168.997V15.9365C166.976 13.1067 163.222 11.2587 159.815 11.2587C151.556 11.2587 146.821 18.8817 146.821 26.447ZM155.657 26.447C155.657 22.5777 158.14 18.9972 162.298 18.9972C166.456 18.9972 168.997 22.5777 168.997 26.447C168.997 30.4895 166.514 33.839 162.298 33.839C158.082 33.839 155.657 30.4895 155.657 26.447Z" fill="url(#paint19_linear_1_109)"/>
<path fill-rule="evenodd" clip-rule="evenodd" d="M182.858 26.447C182.858 34.0122 187.536 41.5197 195.794 41.5197C197.816 41.5197 199.779 41 201.627 40.076C202.898 39.2675 204.11 38.2858 204.977 37.073V40.8268H214.217V1.1525H204.977V15.9365C203.013 13.049 199.202 11.2587 195.794 11.2587C187.594 11.2587 182.858 18.9395 182.858 26.447ZM191.636 26.447C191.636 22.4622 194.062 18.9972 198.335 18.9972C200.126 18.9972 201.8 19.748 202.955 21.0762C204.284 22.4045 204.977 24.4835 204.977 26.447C204.977 28.526 204.284 30.4895 202.955 31.8177C201.8 33.2038 200.126 33.839 198.335 33.839C194.062 33.839 191.636 30.5472 191.636 26.447Z" fill="url(#paint20_linear_1_109)"/>
<path fill-rule="evenodd" clip-rule="evenodd" d="M84.3364 34.3096L98.9412 34.6616L101.093 40.7361L112.046 41L97.4983 1.61587L87.4281 1.37321L71 40.0109L81.8947 40.2734L84.3364 34.3096ZM92.1287 14.1568L98.9412 34.6616L84.3364 34.3096L92.1287 14.1568Z" fill="#A3F869"/>
<path fill-rule="evenodd" clip-rule="evenodd" d="M84.3364 34.3096L98.9412 34.6616L101.093 40.7361L112.046 41L97.4983 1.61587L87.4281 1.37321L71 40.0109L81.8947 40.2734L84.3364 34.3096ZM92.1287 14.1568L98.9412 34.6616L84.3364 34.3096L92.1287 14.1568Z" fill="#A3F869"/>
<path fill-rule="evenodd" clip-rule="evenodd" d="M84.3364 34.3096L98.9412 34.6616L101.093 40.7361L112.046 41L97.4983 1.61587L87.4281 1.37321L71 40.0109L81.8947 40.2734L84.3364 34.3096ZM92.1287 14.1568L98.9412 34.6616L84.3364 34.3096L92.1287 14.1568Z" fill="#A3F869"/>
<path fill-rule="evenodd" clip-rule="evenodd" d="M84.8394 34.7971L99.11 35.141L101.207 41.3009L111.91 41.5588L97.7298 1.62144L87.89 1.38433L71.8026 40.5924L82.4481 40.8489L84.8394 34.7971ZM92.4716 14.3475L99.11 35.141L84.8394 34.7971L92.4716 14.3475Z" fill="#A3F869"/>
<defs>
<linearGradient id="paint0_linear_1_109" x1="-10" y1="-13" x2="273" y2="45" gradientUnits="userSpaceOnUse">
<stop stop-color="#C4FF63"/>
<stop offset="0.37" stop-color="#12DA83" stop-opacity="0.615686"/>
<stop offset="1" stop-color="#00522B"/>
</linearGradient>
<linearGradient id="paint1_linear_1_109" x1="-10" y1="-13" x2="273" y2="45" gradientUnits="userSpaceOnUse">
<stop stop-color="#C4FF63"/>
<stop offset="0.37" stop-color="#12DA83" stop-opacity="0.615686"/>
<stop offset="1" stop-color="#00522B"/>
</linearGradient>
<linearGradient id="paint2_linear_1_109" x1="-10" y1="-13" x2="273" y2="45" gradientUnits="userSpaceOnUse">
<stop stop-color="#C4FF63"/>
<stop offset="0.37" stop-color="#12DA83" stop-opacity="0.615686"/>
<stop offset="1" stop-color="#00522B"/>
</linearGradient>
<linearGradient id="paint3_linear_1_109" x1="-10" y1="-13" x2="273" y2="45" gradientUnits="userSpaceOnUse">
<stop stop-color="#C4FF63"/>
<stop offset="0.37" stop-color="#12DA83" stop-opacity="0.615686"/>
<stop offset="1" stop-color="#00522B"/>
</linearGradient>
<linearGradient id="paint4_linear_1_109" x1="-10" y1="-13" x2="273" y2="45" gradientUnits="userSpaceOnUse">
<stop stop-color="#C4FF63"/>
<stop offset="0.37" stop-color="#12DA83" stop-opacity="0.615686"/>
<stop offset="1" stop-color="#00522B"/>
</linearGradient>
<linearGradient id="paint5_linear_1_109" x1="-10" y1="-13" x2="273" y2="45" gradientUnits="userSpaceOnUse">
<stop stop-color="#C4FF63"/>
<stop offset="0.37" stop-color="#12DA83" stop-opacity="0.615686"/>
<stop offset="1" stop-color="#00522B"/>
</linearGradient>
<linearGradient id="paint6_linear_1_109" x1="-10" y1="-13" x2="273" y2="45" gradientUnits="userSpaceOnUse">
<stop stop-color="#C4FF63"/>
<stop offset="0.37" stop-color="#12DA83" stop-opacity="0.615686"/>
<stop offset="1" stop-color="#00522B"/>
</linearGradient>
<linearGradient id="paint7_linear_1_109" x1="-10" y1="-13" x2="273" y2="45" gradientUnits="userSpaceOnUse">
<stop stop-color="#C4FF63"/>
<stop offset="0.37" stop-color="#12DA83" stop-opacity="0.615686"/>
<stop offset="1" stop-color="#00522B"/>
</linearGradient>
<linearGradient id="paint8_linear_1_109" x1="-10" y1="-13" x2="273" y2="45" gradientUnits="userSpaceOnUse">
<stop stop-color="#C4FF63"/>
<stop offset="0.37" stop-color="#12DA83" stop-opacity="0.615686"/>
<stop offset="1" stop-color="#00522B"/>
</linearGradient>
<linearGradient id="paint9_linear_1_109" x1="-10" y1="-13" x2="273" y2="45" gradientUnits="userSpaceOnUse">
<stop stop-color="#C4FF63"/>
<stop offset="0.37" stop-color="#12DA83" stop-opacity="0.615686"/>
<stop offset="1" stop-color="#00522B"/>
</linearGradient>
<linearGradient id="paint10_linear_1_109" x1="-10" y1="-13" x2="273" y2="45" gradientUnits="userSpaceOnUse">
<stop stop-color="#C4FF63"/>
<stop offset="0.37" stop-color="#12DA83" stop-opacity="0.615686"/>
<stop offset="1" stop-color="#00522B"/>
</linearGradient>
<linearGradient id="paint11_linear_1_109" x1="-10" y1="-13" x2="273" y2="45" gradientUnits="userSpaceOnUse">
<stop stop-color="#C4FF63"/>
<stop offset="0.37" stop-color="#12DA83" stop-opacity="0.615686"/>
<stop offset="1" stop-color="#00522B"/>
</linearGradient>
<linearGradient id="paint12_linear_1_109" x1="-10" y1="-13" x2="273" y2="45" gradientUnits="userSpaceOnUse">
<stop stop-color="#C4FF63"/>
<stop offset="0.37" stop-color="#12DA83" stop-opacity="0.615686"/>
<stop offset="1" stop-color="#00522B"/>
</linearGradient>
<linearGradient id="paint13_linear_1_109" x1="-10" y1="-13" x2="273" y2="45" gradientUnits="userSpaceOnUse">
<stop stop-color="#C4FF63"/>
<stop offset="0.37" stop-color="#12DA83" stop-opacity="0.615686"/>
<stop offset="1" stop-color="#00522B"/>
</linearGradient>
<linearGradient id="paint14_linear_1_109" x1="-10" y1="-13" x2="273" y2="45" gradientUnits="userSpaceOnUse">
<stop stop-color="#C4FF63"/>
<stop offset="0.37" stop-color="#12DA83" stop-opacity="0.615686"/>
<stop offset="1" stop-color="#00522B"/>
</linearGradient>
<linearGradient id="paint15_linear_1_109" x1="-10" y1="-13" x2="273" y2="45" gradientUnits="userSpaceOnUse">
<stop stop-color="#C4FF63"/>
<stop offset="0.37" stop-color="#12DA83" stop-opacity="0.615686"/>
<stop offset="1" stop-color="#00522B"/>
</linearGradient>
<linearGradient id="paint16_linear_1_109" x1="-10" y1="-13" x2="273" y2="45" gradientUnits="userSpaceOnUse">
<stop stop-color="#C4FF63"/>
<stop offset="0.37" stop-color="#12DA83" stop-opacity="0.615686"/>
<stop offset="1" stop-color="#00522B"/>
</linearGradient>
<linearGradient id="paint17_linear_1_109" x1="-10" y1="-13" x2="273" y2="45" gradientUnits="userSpaceOnUse">
<stop stop-color="#C4FF63"/>
<stop offset="0.37" stop-color="#12DA83" stop-opacity="0.615686"/>
<stop offset="1" stop-color="#00522B"/>
</linearGradient>
<linearGradient id="paint18_linear_1_109" x1="-10" y1="-13" x2="273" y2="45" gradientUnits="userSpaceOnUse">
<stop stop-color="#C4FF63"/>
<stop offset="0.37" stop-color="#12DA83" stop-opacity="0.615686"/>
<stop offset="1" stop-color="#00522B"/>
</linearGradient>
<linearGradient id="paint19_linear_1_109" x1="-10" y1="-13" x2="273" y2="45" gradientUnits="userSpaceOnUse">
<stop stop-color="#C4FF63"/>
<stop offset="0.37" stop-color="#12DA83" stop-opacity="0.615686"/>
<stop offset="1" stop-color="#00522B"/>
</linearGradient>
<linearGradient id="paint20_linear_1_109" x1="-10" y1="-13" x2="273" y2="45" gradientUnits="userSpaceOnUse">
<stop stop-color="#C4FF63"/>
<stop offset="0.37" stop-color="#12DA83" stop-opacity="0.615686"/>
<stop offset="1" stop-color="#00522B"/>
</linearGradient>
</defs>
</svg>
